# xmcd
#
# Track frame offsets: 
#        150
#        22452
#        42657
#        59645
#        77757
#        100122
#        106962
#        126105
#        145417
#        164165
#        184750
#        198840
#
# Disc length: 2932 seconds
#
# Revision: 0
# Processed by: cddbd v1.5.2PL0 Copyright (c) Steve Scherf et al.
# Submitted via: ExactAudioCopy v0.99pb1
#
DISCID=b50b720c
DTITLE=98¡ã - 98¡ãand rising
DYEAR=1900
DGENRE=
TTITLE0=intro
TTITLE1=heat in up
TTITLE2=if she only knew
TTITLE3=i do(cherish you)
TTITLE4=still
TTITLE5=because of you
TTITLE6=give it up(interlude)
TTITLE7=do you wanna dance
TTITLE8=true to your heart(featuring stevie wonder)
TTITLE9=to me you're everything
TTITLE10=the hardest thing
TTITLE11=she's out of my life
EXTD=
EXTT0=
EXTT1=
EXTT2=
EXTT3=
EXTT4=
EXTT5=
EXTT6=
EXTT7=
EXTT8=
EXTT9=
EXTT10=
EXTT11=
PLAYORDER=
